<svg width="14" height="14" viewBox="0 0 14 14" fill="none" xmlns="http://www.w3.org/2000/svg">
<path d="M13.5898 3.29492H9.88135V2.47986C9.88135 1.56666 9.13839 0.82373 8.22522 0.82373H5.77481C4.86164 0.82373 4.11868 1.56666 4.11868 2.47986V3.29492H0.410156C0.183641 3.29492 0 3.47856 0 3.70508V11.1562C0 12.2701 0.906199 13.1763 2.02002 13.1763H11.98C13.0938 13.1763 14 12.2701 14 11.1562V3.70508C14 3.47856 13.8164 3.29492 13.5898 3.29492ZM7.93064 8.64746C7.93064 9.16062 7.51313 9.57811 7 9.57811C6.48687 9.57811 6.06936 9.16062 6.06936 8.64746V7.71682H7.93064V8.64746ZM8.3408 6.8965H5.6592C5.43268 6.8965 5.24904 7.08014 5.24904 7.30666V8.0517C2.8639 7.53402 1.07592 5.98697 0.845879 4.11523H13.1541C12.9241 5.98697 11.1361 7.53402 8.75096 8.05172V7.30669C8.75096 7.08014 8.56732 6.8965 8.3408 6.8965ZM4.93896 2.47986C4.93896 2.01898 5.31393 1.64404 5.77478 1.64404H8.22519C8.68604 1.64404 9.06101 2.01898 9.06101 2.47986V3.29492H4.93894V2.47986H4.93896ZM13.1797 11.1562C13.1797 11.8178 12.6415 12.356 11.98 12.356H2.02002C1.35852 12.356 0.820312 11.8178 0.820312 11.1562V6.23038C1.15145 6.70389 1.57839 7.14115 2.09418 7.52798C2.98796 8.19831 4.07911 8.6637 5.26665 8.89331C5.38658 9.74274 6.11797 10.3984 7 10.3984C7.88203 10.3984 8.61342 9.74274 8.73335 8.89331C9.92089 8.6637 11.012 8.19831 11.9058 7.52798C12.4216 7.14115 12.8486 6.70387 13.1797 6.23038V11.1562Z" fill="#34A853"/>
</svg>
