<svg width="147" height="110" viewBox="0 0 147 110" fill="none" xmlns="http://www.w3.org/2000/svg">
<path d="M119.483 55.541C117.793 55.7814 115.5 55.9016 112.603 55.9016C103.431 55.9016 96.5517 53.2568 91.9655 47.9672C87.1379 42.918 84.7241 36.5464 84.7241 28.8524C84.7241 20.6776 87.5 13.8251 93.0517 8.29508C98.3621 2.76502 105.724 -3.60845e-06 115.138 -2.78547e-06C124.793 -1.94139e-06 132.517 2.6448 138.31 7.93442C144.103 13.4645 147 21.3989 147 31.7377C147 45.6831 142.776 59.7486 134.328 73.9344C125.879 88.3607 115.5 100.383 103.19 110L95.9483 102.426C111.638 85.8361 119.483 70.2077 119.483 55.541ZM34.7586 55.541C33.069 55.7814 30.7759 55.9016 27.8793 55.9016C18.7069 55.9016 11.8276 53.2568 7.2414 47.9672C2.41381 42.918 6.42151e-06 36.5464 7.09414e-06 28.8524C7.80881e-06 20.6776 2.77586 13.8251 8.32758 8.29507C13.6379 2.76502 21 -1.10153e-05 30.4138 -1.01923e-05C40.069 -9.34821e-06 47.7931 2.6448 53.5862 7.93442C59.3793 13.4645 62.2759 21.3989 62.2759 31.7377C62.2759 45.6831 58.0517 59.7486 49.6035 73.9344C41.1552 88.3607 30.7759 100.383 18.4655 110L11.2242 102.426C26.9138 85.8361 34.7586 70.2077 34.7586 55.541Z" fill="#0D263B"/>
</svg>
