<svg width="147" height="110" viewBox="0 0 147 110" fill="none" xmlns="http://www.w3.org/2000/svg">
<path d="M27.5172 54.459C29.2069 54.2186 31.5 54.0984 34.3966 54.0984C43.569 54.0984 50.4483 56.7432 55.0345 62.0328C59.8621 67.082 62.2759 73.4535 62.2759 81.1475C62.2759 89.3224 59.5 96.1749 53.9483 101.705C48.6379 107.235 41.2759 110 31.8621 110C22.2069 110 14.4828 107.355 8.68966 102.066C2.89655 96.5355 0 88.6011 0 78.2623C0 64.3169 4.22414 50.2514 12.6724 36.0656C21.1207 21.6393 31.5 9.61748 43.8103 0L51.0517 7.57376C35.3621 24.1639 27.5172 39.7923 27.5172 54.459ZM112.241 54.459C113.931 54.2186 116.224 54.0984 119.121 54.0984C128.293 54.0984 135.172 56.7432 139.759 62.0328C144.586 67.082 147 73.4535 147 81.1475C147 89.3224 144.224 96.1749 138.672 101.705C133.362 107.235 126 110 116.586 110C106.931 110 99.2069 107.355 93.4138 102.066C87.6207 96.5355 84.7241 88.6011 84.7241 78.2623C84.7241 64.3169 88.9483 50.2514 97.3965 36.0656C105.845 21.6393 116.224 9.61748 128.535 0L135.776 7.57376C120.086 24.1639 112.241 39.7923 112.241 54.459Z" fill="#0D263B"/>
</svg>
