<svg width="12" height="14" viewBox="0 0 12 14" fill="none" xmlns="http://www.w3.org/2000/svg">
<path d="M11.3594 3.28125H9.69288C9.47564 1.43615 7.9025 0 6 0C4.0975 0 2.52436 1.43615 2.30712 3.28125H0.640625C0.338586 3.28125 0.09375 3.52609 0.09375 3.82812V13.4531C0.09375 13.7552 0.338586 14 0.640625 14H11.3594C11.6614 14 11.9062 13.7552 11.9062 13.4531V3.82812C11.9062 3.52609 11.6614 3.28125 11.3594 3.28125ZM6 1.09375C7.29839 1.09375 8.37943 2.04135 8.58833 3.28125H3.41167C3.62057 2.04135 4.70161 1.09375 6 1.09375ZM10.8125 12.9062H1.1875V4.375H2.28125V6.01562C2.28125 6.31766 2.52609 6.5625 2.82812 6.5625C3.13016 6.5625 3.375 6.31766 3.375 6.01562V4.375H8.625V6.01562C8.625 6.31766 8.86984 6.5625 9.17188 6.5625C9.47391 6.5625 9.71875 6.31766 9.71875 6.01562V4.375H10.8125V12.9062Z" fill="#0A2357"/>
</svg>
